<?xml version="1.0" standalone="no"?><!DOCTYPE svg PUBLIC "-//W3C//DTD SVG 1.1//EN" "http://www.w3.org/Graphics/SVG/1.1/DTD/svg11.dtd"><svg t="1546961236881" class="icon" style="" viewBox="0 0 1024 1024" version="1.1" xmlns="http://www.w3.org/2000/svg" p-id="4166" xmlns:xlink="http://www.w3.org/1999/xlink" width="200" height="200"><defs><style type="text/css"></style></defs><path d="M520.585846 1024a39.620923 39.620923 0 0 1-24.654769-8.585846l-196.923077-157.538462a39.463385 39.463385 0 0 1 49.230769-61.518769l172.347077 137.846154 172.347077-137.846154a39.463385 39.463385 0 0 1 49.230769 61.518769l-196.923077 157.538462a39.305846 39.305846 0 0 1-24.654769 8.585846z" fill="#999999" p-id="4167"></path><path d="M911.911385 867.485538H717.508923a39.384615 39.384615 0 0 1 0-78.76923h194.402462A33.792 33.792 0 0 0 945.230769 754.530462V113.979077a33.792 33.792 0 0 0-33.319384-34.185846H112.088615A33.792 33.792 0 0 0 78.769231 113.979077v640.551385c0 18.825846 14.887385 34.185846 33.319384 34.185846H323.741538a39.384615 39.384615 0 0 1 0 78.76923H112.088615A112.64 112.64 0 0 1 0 754.530462V113.979077A112.64 112.64 0 0 1 112.088615 1.024h799.82277A112.64 112.64 0 0 1 1024 113.979077v640.551385c0 62.227692-50.333538 112.955077-112.088615 112.955076z" fill="#999999" p-id="4168"></path><path d="M835.662769 237.331692h-630.153846a39.384615 39.384615 0 0 0 0 78.769231h630.153846a39.384615 39.384615 0 0 0 0-78.769231zM835.662769 394.870154h-630.153846a39.384615 39.384615 0 0 0 0 78.769231h630.153846a39.384615 39.384615 0 0 0 0-78.769231zM835.662769 552.408615h-630.153846a39.384615 39.384615 0 0 0 0 78.769231h630.153846a39.384615 39.384615 0 0 0 0-78.769231z" fill="#999999" p-id="4169"></path></svg>