<?xml version="1.0" standalone="no"?><!DOCTYPE svg PUBLIC "-//W3C//DTD SVG 1.1//EN" "http://www.w3.org/Graphics/SVG/1.1/DTD/svg11.dtd"><svg t="1546951630376" class="icon" style="" viewBox="0 0 1024 1024" version="1.1" xmlns="http://www.w3.org/2000/svg" p-id="2672" xmlns:xlink="http://www.w3.org/1999/xlink" width="200" height="200"><defs><style type="text/css"></style></defs><path d="M101.95302 1002.847238c-13.849426 0-25.549909-12.546757-25.549909-27.396977L76.403111 185.868221c0-9.980305 5.196349-19.321044 13.254885-23.858384L319.034127 24.919553c3.743254-2.499937 8.005324-3.767813 12.675694-3.767813 13.849426 0 25.549909 12.546757 25.549909 27.398l0 789.581016c0 9.981329-5.196349 19.321044-13.254885 23.858384L114.629737 999.080447C110.886483 1001.580384 106.623389 1002.847238 101.95302 1002.847238zM331.709821 41.617863c-0.789992 0-1.036609 0.130983-1.347694 0.346901l-0.576121 0.37146L99.874685 179.746804l-0.155543 0.085958c-1.400906 0.771573-2.849908 3.240811-2.849908 6.03546l0 789.582039c0 3.955078 3.084245 6.930853 5.083785 6.930853 0.792039 0 1.038656-0.130983 1.350764-0.346901l0.575098-0.370437 229.909274-137.409556 0.155543-0.085958c1.400906-0.772596 2.849908-3.241834 2.849908-6.036483L336.793606 48.549739C336.793606 44.594661 333.709361 41.617863 331.709821 41.617863z" p-id="2673"></path><path d="M639.523395 1002.847238c-4.345981 0-8.439206-1.004887-11.837606-2.907213L377.039215 862.58061l-0.153496-0.091074c-8.527211-5.066389-13.824867-14.399965-13.824867-24.358781L363.060853 48.549739c0-14.851243 11.858072-27.398 25.89374-27.398 4.328585 0 8.407484 0.997724 11.799744 2.8847L651.439796 161.41939l0.152473 0.091074c8.527211 5.067412 13.824867 14.400988 13.824867 24.357757l0 789.582039C665.418158 990.30048 653.560086 1002.847238 639.523395 1002.847238zM387.221112 844.822155l250.378467 137.214105c0.224104 0.12075 0.881067 0.344854 1.923816 0.344854 2.39249 0 5.428639-3.263323 5.428639-6.930853L644.952035 185.868221c0-2.727111-1.412163-5.27719-3.693112-6.691399L390.802684 41.920762c-0.152473-0.079818-0.809435-0.302899-1.848091-0.302899-2.39249 0-5.427616 3.263323-5.427616 6.931876l0 789.581016C383.526977 840.857866 384.939139 843.408969 387.221112 844.822155z" p-id="2674"></path><path d="M695.390797 1002.847238c-13.745049 0-25.356504-12.546757-25.356504-27.396977L670.034293 185.868221c0-9.956769 5.136997-19.285229 13.102413-23.829731L909.605623 24.951275c3.728928-2.520403 7.977695-3.798513 12.635785-3.798513 13.745049 0 25.355481 12.546757 25.355481 27.398l0 789.581016c0 9.956769-5.135974 19.285229-13.100366 23.829731L708.026582 999.048725C704.298677 1001.569128 700.048887 1002.847238 695.390797 1002.847238zM922.240385 41.617863c-0.728594 0-0.925069 0.113587-1.210571 0.313132l-0.576121 0.375553L693.451632 179.718151l-0.156566 0.088004c-1.160429 0.647753-2.794649 2.957355-2.794649 6.062066l0 789.582039c0 3.826142 2.959402 6.930853 4.89038 6.930853 0.728594 0 0.924045-0.112564 1.209548-0.312108l0.576121-0.375553L924.17955 844.281849l0.155543-0.086981c1.161453-0.648776 2.794649-2.958378 2.794649-6.064113L927.129742 48.549739C927.130765 44.723597 924.171364 41.617863 922.240385 41.617863z" p-id="2675"></path></svg>